<?xml version="1.0" encoding="UTF-8"?>
<!DOCTYPE svg PUBLIC "-//W3C//DTD SVG 1.1//EN" "http://www.w3.org/Graphics/SVG/1.1/DTD/svg11.dtd">
<svg xmlns="http://www.w3.org/2000/svg" version="1.1" width="629px" height="368px" style="shape-rendering:geometricPrecision; text-rendering:geometricPrecision; image-rendering:optimizeQuality; fill-rule:evenodd; clip-rule:evenodd" xmlns:xlink="http://www.w3.org/1999/xlink">
<g><path style="opacity:0.991" fill="#594ae3" d="M 391.5,11.5 C 406.081,24.5782 420.248,38.2448 434,52.5C 434.667,53.1667 434.667,53.8333 434,54.5C 385,102.167 336.667,150.5 289,199.5C 261,170.167 232.333,141.5 203,113.5C 202.333,112.833 202.333,112.167 203,111.5C 216.681,97.6526 230.514,83.9859 244.5,70.5C 259.486,84.9859 274.319,99.6526 289,114.5C 323.368,80.2987 357.535,45.9654 391.5,11.5 Z"/></g>
<g><path style="opacity:0.974" fill="#5949e3" d="M 329.5,248.5 C 360.833,242.842 376.166,255.842 375.5,287.5C 374.693,305.475 374.193,323.475 374,341.5C 367.667,342.833 361.333,342.833 355,341.5C 353.994,339.466 353.494,337.3 353.5,335C 354.111,327.793 354.444,320.626 354.5,313.5C 345.874,312.589 337.208,312.255 328.5,312.5C 328.666,322.172 328.5,331.839 328,341.5C 322.25,342.641 316.416,342.807 310.5,342C 310,341.5 309.5,341 309,340.5C 308.833,337.667 308.667,334.833 308.5,332C 309.739,323.671 309.739,315.337 308.5,307C 309.017,297.168 309.517,287.334 310,277.5C 310.136,263.252 316.636,253.586 329.5,248.5 Z M 338.5,266.5 C 344.119,266.34 348.619,268.34 352,272.5C 354.178,279.661 355.012,286.995 354.5,294.5C 345.833,294.5 337.167,294.5 328.5,294.5C 329.003,287.46 329.836,280.46 331,273.5C 332.767,270.228 335.267,267.895 338.5,266.5 Z"/></g>
<g><path style="opacity:0.97" fill="#5949e3" d="M 407.5,248.5 C 416.568,248.119 425.568,248.619 434.5,250C 447.662,256.652 452.662,266.985 449.5,281C 443.833,281.667 438.167,281.667 432.5,281C 430.21,268.361 423.21,264.361 411.5,269C 405.959,274.057 406.293,278.724 412.5,283C 422.248,286.805 431.914,290.805 441.5,295C 448.178,300.192 451.178,307.025 450.5,315.5C 450.576,329.234 444.243,338.401 431.5,343C 422.438,343.881 413.438,343.548 404.5,342C 392.902,336.378 386.902,327.044 386.5,314C 386.484,311.695 387.484,310.028 389.5,309C 394.904,308.228 400.238,308.561 405.5,310C 406.966,314.277 408.799,318.443 411,322.5C 415.897,325.723 421.063,326.223 426.5,324C 431.642,318.889 431.642,313.889 426.5,309C 417.003,305.39 407.669,301.39 398.5,297C 387.747,287.378 385.247,275.878 391,262.5C 394.561,255.431 400.061,250.764 407.5,248.5 Z"/></g>
<g><path style="opacity:0.97" fill="#5949e3" d="M 563.5,248.5 C 571.507,248.334 579.507,248.5 587.5,249C 600.45,253.292 607.45,262.292 608.5,276C 608.646,278.034 607.98,279.701 606.5,281C 600.833,281.667 595.167,281.667 589.5,281C 588.077,277.491 586.577,273.991 585,270.5C 577.408,264.894 570.741,265.894 565,273.5C 564.07,276.85 564.903,279.683 567.5,282C 577.799,286.325 588.133,290.658 598.5,295C 610.462,309.192 610.462,323.525 598.5,338C 595.205,340.434 591.538,342.101 587.5,343C 579.833,343.667 572.167,343.667 564.5,343C 549.504,337.541 542.67,326.708 544,310.5C 544.75,309.874 545.584,309.374 546.5,309C 551.891,308.308 557.225,308.641 562.5,310C 564.039,313.341 565.206,316.841 566,320.5C 571.139,325.639 576.972,326.639 583.5,323.5C 589.358,317.444 588.691,312.278 581.5,308C 569.947,304.807 559.447,299.64 550,292.5C 541.971,279.117 543.137,266.45 553.5,254.5C 556.598,251.957 559.931,249.957 563.5,248.5 Z"/></g>
<g><path style="opacity:0.968" fill="#5949e3" d="M 31.5,249.5 C 36.8437,249.334 42.1771,249.501 47.5,250C 48,250.5 48.5,251 49,251.5C 56.4506,264.032 63.6172,276.699 70.5,289.5C 77.4105,276.006 85.0772,263.006 93.5,250.5C 98.7798,249.382 104.113,249.216 109.5,250C 110,250.5 110.5,251 111,251.5C 111.667,281.5 111.667,311.5 111,341.5C 104.924,342.476 98.7576,342.81 92.5,342.5C 91.9076,326.173 91.4076,309.839 91,293.5C 85.9326,301.578 81.266,309.911 77,318.5C 73.5514,321.785 69.8847,322.118 66,319.5C 61,310.833 56,302.167 51,293.5C 49.4916,296.476 49.325,299.476 50.5,302.5C 49.7227,315.481 49.2227,328.481 49,341.5C 43.2496,342.641 37.4163,342.807 31.5,342C 31,341.5 30.5,341 30,340.5C 30.1589,310.179 30.6589,279.845 31.5,249.5 Z"/></g>
<g><path style="opacity:0.966" fill="#5949e3" d="M 125.5,249.5 C 131.758,249.19 137.924,249.524 144,250.5C 144.334,261.521 145.001,272.521 146,283.5C 149.596,293.257 156.096,295.757 165.5,291C 167.041,289.421 168.208,287.587 169,285.5C 170.113,277.038 170.946,268.538 171.5,260C 170.04,256.725 170.207,253.558 172,250.5C 178,249.167 184,249.167 190,250.5C 190.906,264.214 190.573,277.881 189,291.5C 186.009,303.329 178.509,309.995 166.5,311.5C 166.666,321.506 166.5,331.506 166,341.5C 160,342.833 154,342.833 148,341.5C 147.832,331.483 147.332,321.483 146.5,311.5C 134.862,308.24 128.362,300.573 127,288.5C 125.107,275.509 124.607,262.509 125.5,249.5 Z"/></g>
<g><path style="opacity:0.98" fill="#5a49e3" d="M 240.5,249.5 C 259.836,249.333 279.17,249.5 298.5,250C 299.815,255.47 299.815,260.97 298.5,266.5C 297.135,267.456 295.635,268.122 294,268.5C 289.219,267.581 284.385,267.248 279.5,267.5C 279.667,291.836 279.5,316.169 279,340.5C 278.5,341 278,341.5 277.5,342C 271.584,342.807 265.75,342.641 260,341.5C 259.5,316.836 259.333,292.169 259.5,267.5C 253.158,267.666 246.825,267.5 240.5,267C 239.187,261.167 239.187,255.334 240.5,249.5 Z"/></g>
<g><path style="opacity:0.966" fill="#5949e3" d="M 466.5,249.5 C 472.176,249.334 477.843,249.501 483.5,250C 484.126,250.75 484.626,251.584 485,252.5C 485.333,264.499 485.333,276.499 485,288.5C 493.779,275.388 502.945,262.555 512.5,250C 519.826,249.5 527.159,249.334 534.5,249.5C 534.66,251.199 534.494,252.866 534,254.5C 523.159,267.833 513.326,281.833 504.5,296.5C 513.25,310.321 522.75,323.655 533,336.5C 534.495,338.11 534.661,339.776 533.5,341.5C 525.749,342.931 518.083,342.765 510.5,341C 502.369,328.571 493.869,316.404 485,304.5C 484.667,316.833 484.333,329.167 484,341.5C 482.874,342.944 481.374,343.61 479.5,343.5C 474.795,342.964 470.128,342.297 465.5,341.5C 464.326,310.759 464.659,280.092 466.5,249.5 Z"/></g>
</svg>
